<svg width="626" height="83" viewBox="0 0 626 83" fill="none" xmlns="http://www.w3.org/2000/svg">
<g clip-path="url(#clip0_53400_29636)">
<path d="M36.992 0.975998C44.288 7.504 49.024 15.824 50.176 21.712C50.56 22.992 50.816 24.272 50.816 25.808C50.816 35.792 44.416 40.656 30.976 40.656H19.328V12.368H30.464C32 12.368 33.408 12.368 34.816 12.496C29.696 6.09599 21.76 0.207993 12.16 0.848H3.456V82.128H19.328V52.176H32.256C51.584 52.176 66.432 43.984 66.432 25.808C66.432 8.784 54.272 2 36.992 0.975998ZM111.725 0.848C97.517 0.848 86.125 6.736 79.597 17.36C79.725 17.36 79.725 17.232 79.853 17.232C90.733 11.6 106.349 9.936 116.845 13.264C123.245 15.312 127.213 19.152 129.133 21.968C132.333 26.704 134.253 33.232 134.253 41.168C134.253 59.472 125.421 70.608 111.725 70.608C98.157 70.608 89.325 59.472 89.325 41.168C89.325 33.36 91.117 27.088 94.189 22.352C90.733 23.12 87.405 24.272 84.333 25.808C78.061 29.008 74.477 33.36 73.709 38.736C73.581 39.504 73.581 40.272 73.581 41.168C73.581 66.512 89.197 82.128 111.725 82.128C134.381 82.128 149.997 66.512 149.997 41.168C149.997 15.824 134.381 0.848 111.725 0.848ZM190.617 0.975998C197.913 7.504 202.649 15.824 203.801 21.712C204.185 22.992 204.441 24.272 204.441 25.808C204.441 35.792 198.041 40.656 184.601 40.656H172.953V12.368H184.089C185.625 12.368 187.033 12.368 188.441 12.496C183.321 6.09599 175.385 0.207993 165.785 0.848H157.081V82.128H172.953V52.176H185.881C205.209 52.176 220.057 43.984 220.057 25.808C220.057 8.784 207.897 2 190.617 0.975998ZM245.254 0.848H227.206V82.128H241.542L240.902 23.12L259.334 74.448H273.542L258.95 35.024L245.254 0.848ZM288.646 0.848C288.646 0.848 272.902 41.168 272.774 41.424L279.43 59.344L293.51 22.864L293.254 82.128H306.694V0.848H288.646ZM351.85 0.848C337.642 0.848 326.25 6.736 319.722 17.36C319.85 17.36 319.85 17.232 319.978 17.232C330.858 11.6 346.474 9.936 356.97 13.264C363.37 15.312 367.338 19.152 369.258 21.968C372.458 26.704 374.378 33.232 374.378 41.168C374.378 59.472 365.546 70.608 351.85 70.608C338.282 70.608 329.45 59.472 329.45 41.168C329.45 33.36 331.242 27.088 334.314 22.352C330.858 23.12 327.53 24.272 324.458 25.808C318.186 29.008 314.602 33.36 313.834 38.736C313.706 39.504 313.706 40.272 313.706 41.168C313.706 66.512 329.322 82.128 351.85 82.128C374.506 82.128 390.122 66.512 390.122 41.168C390.122 15.824 374.506 0.848 351.85 0.848ZM426.646 41.68L414.102 0.848H397.206L416.662 57.296H431.382C429.846 52.176 428.438 47.184 426.646 41.68ZM455.574 0.848L443.03 41.68C440.214 50.896 438.166 58.832 435.094 68.048H434.582H420.246L425.11 82.128H444.054L471.83 0.848H455.574ZM494.703 23.12V0.848H478.831V23.12H494.703ZM494.703 82.128V33.872H478.831V82.128H494.703ZM551.495 12.752V0.591995H501.831V12.752H551.495ZM517.703 69.84V45.776H542.151V33.616H517.703V23.504H501.831V81.872H552.903V69.84H517.703ZM592.852 12.88C600.276 12.88 606.164 15.312 611.668 19.664L619.604 10.832C612.82 4.56 602.964 0.848 592.852 0.848C589.78 0.848 586.836 1.104 584.02 1.744C581.588 2.768 578.644 5.072 578.132 8.016C577.62 10.448 579.156 13.136 582.228 15.952C584.532 14.032 588.244 12.88 592.852 12.88ZM604.756 37.584L593.108 33.232C590.676 32.336 587.22 31.184 583.124 28.752C572.5 22.224 569.044 15.696 568.404 10.448C565.46 14.032 563.796 18.256 563.796 22.864C563.796 34.384 572.756 40.528 581.204 43.728L593.108 48.336C600.916 51.408 606.548 53.456 606.548 59.856C606.548 66 601.172 69.968 591.444 69.968C583.38 69.968 575.06 66.384 568.916 61.008L559.956 70.608C568.148 77.904 579.412 82.128 591.188 82.128C610.644 82.128 622.292 71.504 622.292 58.704C622.292 47.44 614.996 41.552 604.756 37.584Z" fill="#320046"/>
<path d="M365.638 40.7302C367.063 41.4801 367.063 43.5199 365.638 44.2698L346.432 54.3802C345.1 55.0813 343.5 54.1155 343.5 52.6104V32.3896C343.5 30.8845 345.1 29.9187 346.432 30.6198L365.638 40.7302Z" fill="#320046"/>
</g>
<defs>
<clipPath id="clip0_53400_29636">
<rect width="626" height="83" fill="white"/>
</clipPath>
</defs>
</svg>
