<svg width="77" height="83" viewBox="0 0 77 83" fill="none" xmlns="http://www.w3.org/2000/svg">
<g clip-path="url(#clip0_53400_29633)">
<path d="M38.6 0.848C24.392 0.848 13 6.736 6.472 17.36C6.6 17.36 6.6 17.232 6.728 17.232C17.608 11.6 33.224 9.936 43.72 13.264C50.12 15.312 54.088 19.152 56.008 21.968C59.208 26.704 61.128 33.232 61.128 41.168C61.128 59.472 52.296 70.608 38.6 70.608C25.032 70.608 16.2 59.472 16.2 41.168C16.2 33.36 17.992 27.088 21.064 22.352C17.608 23.12 14.28 24.272 11.208 25.808C4.936 29.008 1.352 33.36 0.584 38.736C0.456 39.504 0.456 40.272 0.456 41.168C0.456 66.512 16.072 82.128 38.6 82.128C61.256 82.128 76.872 66.512 76.872 41.168C76.872 15.824 61.256 0.848 38.6 0.848Z" fill="#320046"/>
<path d="M51.5018 40.2179C52.958 40.9597 52.958 43.0403 51.5018 43.7821L32.4078 53.509C31.0772 54.1869 29.5 53.2203 29.5 51.727L29.5 32.273C29.5 30.7797 31.0772 29.8131 32.4078 30.491L51.5018 40.2179Z" fill="#320046"/>
</g>
<defs>
<clipPath id="clip0_53400_29633">
<rect width="77" height="83" fill="white"/>
</clipPath>
</defs>
</svg>
